<mxfile host="app.diagrams.net" modified="2022-04-09T14:17:12.757Z" agent="5.0 (X11; Linux x86_64) AppleWebKit/537.36 (KHTML, like Gecko) Chrome/100.0.4896.75 Safari/537.36" etag="9bK3oHm9buGDI_wJUVo_" version="17.4.0" type="github">
  <diagram id="C5RBs43oDa-KdzZeNtuy" name="Page-1">
    <mxGraphModel dx="1374" dy="810" grid="1" gridSize="10" guides="1" tooltips="1" connect="1" arrows="1" fold="1" page="1" pageScale="1" pageWidth="827" pageHeight="1169" math="0" shadow="0">
      <root>
        <mxCell id="WIyWlLk6GJQsqaUBKTNV-0" />
        <mxCell id="WIyWlLk6GJQsqaUBKTNV-1" parent="WIyWlLk6GJQsqaUBKTNV-0" />
        <mxCell id="7bwkgDNy9H3JULc0SBVc-12" value="Drawing" style="shape=module;align=left;spacingLeft=20;align=center;verticalAlign=top;fillColor=#FDFDC9;strokeColor=#36393d;rounded=1;" vertex="1" parent="WIyWlLk6GJQsqaUBKTNV-1">
          <mxGeometry x="1060" y="20" width="570" height="408" as="geometry" />
        </mxCell>
        <mxCell id="TClMw2kC0mhd8q1SmInl-26" value="Parsing" style="shape=module;align=left;spacingLeft=20;align=center;verticalAlign=top;fillColor=#FDFDC9;strokeColor=#36393d;rounded=1;" parent="WIyWlLk6GJQsqaUBKTNV-1" vertex="1">
          <mxGeometry x="130" y="783" width="480" height="313" as="geometry" />
        </mxCell>
        <mxCell id="TClMw2kC0mhd8q1SmInl-17" value="Reading" style="shape=module;align=left;spacingLeft=20;align=center;verticalAlign=top;fillColor=#FDFDC9;strokeColor=#36393d;rounded=1;" parent="WIyWlLk6GJQsqaUBKTNV-1" vertex="1">
          <mxGeometry x="130" y="410" width="480" height="313" as="geometry" />
        </mxCell>
        <mxCell id="brDCO7rPpaBt-31tqSY--3" value="Engine" style="swimlane;fontStyle=2;align=center;verticalAlign=top;childLayout=stackLayout;horizontal=1;startSize=26;horizontalStack=0;resizeParent=1;resizeLast=0;collapsible=1;marginBottom=0;rounded=1;shadow=0;strokeWidth=1;fillColor=#FFFF66;" parent="WIyWlLk6GJQsqaUBKTNV-1" vertex="1">
          <mxGeometry x="330" y="180" width="160" height="138" as="geometry">
            <mxRectangle x="230" y="140" width="160" height="26" as="alternateBounds" />
          </mxGeometry>
        </mxCell>
        <mxCell id="brDCO7rPpaBt-31tqSY--9" value="files" style="text;align=left;verticalAlign=top;spacingLeft=4;spacingRight=4;overflow=hidden;rotatable=0;points=[[0,0.5],[1,0.5]];portConstraint=eastwest;rounded=1;" parent="brDCO7rPpaBt-31tqSY--3" vertex="1">
          <mxGeometry y="26" width="160" height="26" as="geometry" />
        </mxCell>
        <mxCell id="TClMw2kC0mhd8q1SmInl-27" value="classes" style="text;align=left;verticalAlign=top;spacingLeft=4;spacingRight=4;overflow=hidden;rotatable=0;points=[[0,0.5],[1,0.5]];portConstraint=eastwest;rounded=1;" parent="brDCO7rPpaBt-31tqSY--3" vertex="1">
          <mxGeometry y="52" width="160" height="26" as="geometry" />
        </mxCell>
        <mxCell id="brDCO7rPpaBt-31tqSY--4" value="" style="line;html=1;strokeWidth=1;align=left;verticalAlign=middle;spacingTop=-1;spacingLeft=3;spacingRight=3;rotatable=0;labelPosition=right;points=[];portConstraint=eastwest;rounded=1;" parent="brDCO7rPpaBt-31tqSY--3" vertex="1">
          <mxGeometry y="78" width="160" height="8" as="geometry" />
        </mxCell>
        <mxCell id="cKw881k5v9MW6BHNPAB5-6" value="Read()" style="text;align=left;verticalAlign=top;spacingLeft=4;spacingRight=4;overflow=hidden;rotatable=0;points=[[0,0.5],[1,0.5]];portConstraint=eastwest;rounded=1;" parent="brDCO7rPpaBt-31tqSY--3" vertex="1">
          <mxGeometry y="86" width="160" height="26" as="geometry" />
        </mxCell>
        <mxCell id="cKw881k5v9MW6BHNPAB5-15" value="GetClasses()" style="text;align=left;verticalAlign=top;spacingLeft=4;spacingRight=4;overflow=hidden;rotatable=0;points=[[0,0.5],[1,0.5]];portConstraint=eastwest;rounded=1;" parent="brDCO7rPpaBt-31tqSY--3" vertex="1">
          <mxGeometry y="112" width="160" height="26" as="geometry" />
        </mxCell>
        <mxCell id="NwMVmhF7Geu6R6AWHGBS-0" value="ObjectClass" style="swimlane;fontStyle=2;align=center;verticalAlign=top;childLayout=stackLayout;horizontal=1;startSize=26;horizontalStack=0;resizeParent=1;resizeLast=0;collapsible=1;marginBottom=0;rounded=1;shadow=0;strokeWidth=1;fillColor=#FFFF66;" parent="WIyWlLk6GJQsqaUBKTNV-1" vertex="1">
          <mxGeometry x="1150" y="600" width="160" height="216" as="geometry">
            <mxRectangle x="230" y="140" width="160" height="26" as="alternateBounds" />
          </mxGeometry>
        </mxCell>
        <mxCell id="NwMVmhF7Geu6R6AWHGBS-1" value="name" style="text;align=left;verticalAlign=top;spacingLeft=4;spacingRight=4;overflow=hidden;rotatable=0;points=[[0,0.5],[1,0.5]];portConstraint=eastwest;rounded=1;" parent="NwMVmhF7Geu6R6AWHGBS-0" vertex="1">
          <mxGeometry y="26" width="160" height="26" as="geometry" />
        </mxCell>
        <mxCell id="NwMVmhF7Geu6R6AWHGBS-2" value="vars" style="text;align=left;verticalAlign=top;spacingLeft=4;spacingRight=4;overflow=hidden;rotatable=0;points=[[0,0.5],[1,0.5]];portConstraint=eastwest;rounded=1;" parent="NwMVmhF7Geu6R6AWHGBS-0" vertex="1">
          <mxGeometry y="52" width="160" height="26" as="geometry" />
        </mxCell>
        <mxCell id="NwMVmhF7Geu6R6AWHGBS-3" value="methods" style="text;align=left;verticalAlign=top;spacingLeft=4;spacingRight=4;overflow=hidden;rotatable=0;points=[[0,0.5],[1,0.5]];portConstraint=eastwest;rounded=1;" parent="NwMVmhF7Geu6R6AWHGBS-0" vertex="1">
          <mxGeometry y="78" width="160" height="26" as="geometry" />
        </mxCell>
        <mxCell id="NwMVmhF7Geu6R6AWHGBS-4" value="parents" style="text;align=left;verticalAlign=top;spacingLeft=4;spacingRight=4;overflow=hidden;rotatable=0;points=[[0,0.5],[1,0.5]];portConstraint=eastwest;rounded=1;" parent="NwMVmhF7Geu6R6AWHGBS-0" vertex="1">
          <mxGeometry y="104" width="160" height="26" as="geometry" />
        </mxCell>
        <mxCell id="NwMVmhF7Geu6R6AWHGBS-24" value="compositions" style="text;align=left;verticalAlign=top;spacingLeft=4;spacingRight=4;overflow=hidden;rotatable=0;points=[[0,0.5],[1,0.5]];portConstraint=eastwest;rounded=1;" parent="NwMVmhF7Geu6R6AWHGBS-0" vertex="1">
          <mxGeometry y="130" width="160" height="26" as="geometry" />
        </mxCell>
        <mxCell id="NwMVmhF7Geu6R6AWHGBS-5" value="" style="line;html=1;strokeWidth=1;align=left;verticalAlign=middle;spacingTop=-1;spacingLeft=3;spacingRight=3;rotatable=0;labelPosition=right;points=[];portConstraint=eastwest;rounded=1;" parent="NwMVmhF7Geu6R6AWHGBS-0" vertex="1">
          <mxGeometry y="156" width="160" height="8" as="geometry" />
        </mxCell>
        <mxCell id="Z01SoYrw3imbdWKildIG-0" value="Draw()" style="text;align=left;verticalAlign=top;spacingLeft=4;spacingRight=4;overflow=hidden;rotatable=0;points=[[0,0.5],[1,0.5]];portConstraint=eastwest;rounded=1;" parent="NwMVmhF7Geu6R6AWHGBS-0" vertex="1">
          <mxGeometry y="164" width="160" height="26" as="geometry" />
        </mxCell>
        <mxCell id="NwMVmhF7Geu6R6AWHGBS-18" value="GetImageSize()" style="text;align=left;verticalAlign=top;spacingLeft=4;spacingRight=4;overflow=hidden;rotatable=0;points=[[0,0.5],[1,0.5]];portConstraint=eastwest;rounded=1;" parent="NwMVmhF7Geu6R6AWHGBS-0" vertex="1">
          <mxGeometry y="190" width="160" height="26" as="geometry" />
        </mxCell>
        <mxCell id="NwMVmhF7Geu6R6AWHGBS-14" value="UI" style="swimlane;fontStyle=2;align=center;verticalAlign=top;childLayout=stackLayout;horizontal=1;startSize=26;horizontalStack=0;resizeParent=1;resizeLast=0;collapsible=1;marginBottom=0;rounded=1;shadow=0;strokeWidth=1;fillColor=#FFFF66;" parent="WIyWlLk6GJQsqaUBKTNV-1" vertex="1">
          <mxGeometry x="1081" y="193" width="160" height="138" as="geometry">
            <mxRectangle x="230" y="140" width="160" height="26" as="alternateBounds" />
          </mxGeometry>
        </mxCell>
        <mxCell id="NwMVmhF7Geu6R6AWHGBS-15" value="classes" style="text;align=left;verticalAlign=top;spacingLeft=4;spacingRight=4;overflow=hidden;rotatable=0;points=[[0,0.5],[1,0.5]];portConstraint=eastwest;rounded=1;" parent="NwMVmhF7Geu6R6AWHGBS-14" vertex="1">
          <mxGeometry y="26" width="160" height="26" as="geometry" />
        </mxCell>
        <mxCell id="7bwkgDNy9H3JULc0SBVc-9" value="drawer" style="text;align=left;verticalAlign=top;spacingLeft=4;spacingRight=4;overflow=hidden;rotatable=0;points=[[0,0.5],[1,0.5]];portConstraint=eastwest;rounded=1;" vertex="1" parent="NwMVmhF7Geu6R6AWHGBS-14">
          <mxGeometry y="52" width="160" height="26" as="geometry" />
        </mxCell>
        <mxCell id="NwMVmhF7Geu6R6AWHGBS-16" value="" style="line;html=1;strokeWidth=1;align=left;verticalAlign=middle;spacingTop=-1;spacingLeft=3;spacingRight=3;rotatable=0;labelPosition=right;points=[];portConstraint=eastwest;rounded=1;" parent="NwMVmhF7Geu6R6AWHGBS-14" vertex="1">
          <mxGeometry y="78" width="160" height="8" as="geometry" />
        </mxCell>
        <mxCell id="NwMVmhF7Geu6R6AWHGBS-17" value="DrawUML()" style="text;align=left;verticalAlign=top;spacingLeft=4;spacingRight=4;overflow=hidden;rotatable=0;points=[[0,0.5],[1,0.5]];portConstraint=eastwest;rounded=1;" parent="NwMVmhF7Geu6R6AWHGBS-14" vertex="1">
          <mxGeometry y="86" width="160" height="26" as="geometry" />
        </mxCell>
        <mxCell id="cKw881k5v9MW6BHNPAB5-14" value="SetClasses()" style="text;align=left;verticalAlign=top;spacingLeft=4;spacingRight=4;overflow=hidden;rotatable=0;points=[[0,0.5],[1,0.5]];portConstraint=eastwest;rounded=1;" parent="NwMVmhF7Geu6R6AWHGBS-14" vertex="1">
          <mxGeometry y="112" width="160" height="26" as="geometry" />
        </mxCell>
        <mxCell id="NwMVmhF7Geu6R6AWHGBS-19" value="Controller" style="swimlane;fontStyle=2;align=center;verticalAlign=top;childLayout=stackLayout;horizontal=1;startSize=26;horizontalStack=0;resizeParent=1;resizeLast=0;collapsible=1;marginBottom=0;rounded=1;shadow=0;strokeWidth=1;fillColor=#FFFF66;" parent="WIyWlLk6GJQsqaUBKTNV-1" vertex="1">
          <mxGeometry x="710" y="12" width="160" height="112" as="geometry">
            <mxRectangle x="230" y="140" width="160" height="26" as="alternateBounds" />
          </mxGeometry>
        </mxCell>
        <mxCell id="NwMVmhF7Geu6R6AWHGBS-20" value="engine" style="text;align=left;verticalAlign=top;spacingLeft=4;spacingRight=4;overflow=hidden;rotatable=0;points=[[0,0.5],[1,0.5]];portConstraint=eastwest;rounded=1;" parent="NwMVmhF7Geu6R6AWHGBS-19" vertex="1">
          <mxGeometry y="26" width="160" height="26" as="geometry" />
        </mxCell>
        <mxCell id="_q6mb241feD118rv6-at-0" value="ui" style="text;align=left;verticalAlign=top;spacingLeft=4;spacingRight=4;overflow=hidden;rotatable=0;points=[[0,0.5],[1,0.5]];portConstraint=eastwest;rounded=1;" parent="NwMVmhF7Geu6R6AWHGBS-19" vertex="1">
          <mxGeometry y="52" width="160" height="26" as="geometry" />
        </mxCell>
        <mxCell id="NwMVmhF7Geu6R6AWHGBS-21" value="" style="line;html=1;strokeWidth=1;align=left;verticalAlign=middle;spacingTop=-1;spacingLeft=3;spacingRight=3;rotatable=0;labelPosition=right;points=[];portConstraint=eastwest;rounded=1;" parent="NwMVmhF7Geu6R6AWHGBS-19" vertex="1">
          <mxGeometry y="78" width="160" height="8" as="geometry" />
        </mxCell>
        <mxCell id="NwMVmhF7Geu6R6AWHGBS-22" value="Start()" style="text;align=left;verticalAlign=top;spacingLeft=4;spacingRight=4;overflow=hidden;rotatable=0;points=[[0,0.5],[1,0.5]];portConstraint=eastwest;rounded=1;" parent="NwMVmhF7Geu6R6AWHGBS-19" vertex="1">
          <mxGeometry y="86" width="160" height="26" as="geometry" />
        </mxCell>
        <mxCell id="_q6mb241feD118rv6-at-2" value="" style="edgeStyle=elbowEdgeStyle;elbow=horizontal;endArrow=classic;html=1;entryX=0;entryY=0.5;entryDx=0;entryDy=0;exitX=0.5;exitY=0;exitDx=0;exitDy=0;fillColor=#6a00ff;strokeColor=#3700CC;strokeWidth=2;rounded=1;curved=1;" parent="WIyWlLk6GJQsqaUBKTNV-1" source="brDCO7rPpaBt-31tqSY--3" target="NwMVmhF7Geu6R6AWHGBS-20" edge="1">
          <mxGeometry width="50" height="50" relative="1" as="geometry">
            <mxPoint x="820" y="224" as="sourcePoint" />
            <mxPoint x="680" y="93" as="targetPoint" />
            <Array as="points">
              <mxPoint x="410" y="110" />
              <mxPoint x="620" y="154" />
            </Array>
          </mxGeometry>
        </mxCell>
        <mxCell id="cKw881k5v9MW6BHNPAB5-0" value="Settings" style="swimlane;fontStyle=2;align=center;verticalAlign=top;childLayout=stackLayout;horizontal=1;startSize=26;horizontalStack=0;resizeParent=1;resizeLast=0;collapsible=1;marginBottom=0;rounded=1;shadow=0;strokeWidth=1;fillColor=#FFFF66;" parent="WIyWlLk6GJQsqaUBKTNV-1" vertex="1">
          <mxGeometry x="1280" y="960" width="160" height="86" as="geometry">
            <mxRectangle x="230" y="140" width="160" height="26" as="alternateBounds" />
          </mxGeometry>
        </mxCell>
        <mxCell id="cKw881k5v9MW6BHNPAB5-12" value="nameFont" style="text;align=left;verticalAlign=top;spacingLeft=4;spacingRight=4;overflow=hidden;rotatable=0;points=[[0,0.5],[1,0.5]];portConstraint=eastwest;rounded=1;" parent="cKw881k5v9MW6BHNPAB5-0" vertex="1">
          <mxGeometry y="26" width="160" height="26" as="geometry" />
        </mxCell>
        <mxCell id="cKw881k5v9MW6BHNPAB5-13" value="fieldFont" style="text;align=left;verticalAlign=top;spacingLeft=4;spacingRight=4;overflow=hidden;rotatable=0;points=[[0,0.5],[1,0.5]];portConstraint=eastwest;rounded=1;" parent="cKw881k5v9MW6BHNPAB5-0" vertex="1">
          <mxGeometry y="52" width="160" height="26" as="geometry" />
        </mxCell>
        <mxCell id="cKw881k5v9MW6BHNPAB5-1" value="" style="line;html=1;strokeWidth=1;align=left;verticalAlign=middle;spacingTop=-1;spacingLeft=3;spacingRight=3;rotatable=0;labelPosition=right;points=[];portConstraint=eastwest;rounded=1;" parent="cKw881k5v9MW6BHNPAB5-0" vertex="1">
          <mxGeometry y="78" width="160" height="8" as="geometry" />
        </mxCell>
        <mxCell id="cKw881k5v9MW6BHNPAB5-16" value="File" style="swimlane;fontStyle=2;align=center;verticalAlign=top;childLayout=stackLayout;horizontal=1;startSize=26;horizontalStack=0;resizeParent=1;resizeLast=0;collapsible=1;marginBottom=0;rounded=1;shadow=0;strokeWidth=1;fillColor=#FFFF66;" parent="WIyWlLk6GJQsqaUBKTNV-1" vertex="1">
          <mxGeometry x="740" y="383" width="160" height="164" as="geometry">
            <mxRectangle x="230" y="140" width="160" height="26" as="alternateBounds" />
          </mxGeometry>
        </mxCell>
        <mxCell id="cKw881k5v9MW6BHNPAB5-17" value="date" style="text;align=left;verticalAlign=top;spacingLeft=4;spacingRight=4;overflow=hidden;rotatable=0;points=[[0,0.5],[1,0.5]];portConstraint=eastwest;rounded=1;" parent="cKw881k5v9MW6BHNPAB5-16" vertex="1">
          <mxGeometry y="26" width="160" height="26" as="geometry" />
        </mxCell>
        <mxCell id="cKw881k5v9MW6BHNPAB5-25" value="classes" style="text;align=left;verticalAlign=top;spacingLeft=4;spacingRight=4;overflow=hidden;rotatable=0;points=[[0,0.5],[1,0.5]];portConstraint=eastwest;rounded=1;" parent="cKw881k5v9MW6BHNPAB5-16" vertex="1">
          <mxGeometry y="52" width="160" height="26" as="geometry" />
        </mxCell>
        <mxCell id="cKw881k5v9MW6BHNPAB5-18" value="" style="line;html=1;strokeWidth=1;align=left;verticalAlign=middle;spacingTop=-1;spacingLeft=3;spacingRight=3;rotatable=0;labelPosition=right;points=[];portConstraint=eastwest;rounded=1;" parent="cKw881k5v9MW6BHNPAB5-16" vertex="1">
          <mxGeometry y="78" width="160" height="8" as="geometry" />
        </mxCell>
        <mxCell id="cKw881k5v9MW6BHNPAB5-29" value="Reader" style="swimlane;fontStyle=2;align=center;verticalAlign=top;childLayout=stackLayout;horizontal=1;startSize=26;horizontalStack=0;resizeParent=1;resizeLast=0;collapsible=1;marginBottom=0;rounded=1;shadow=0;strokeWidth=1;fillColor=#FFFF66;" parent="WIyWlLk6GJQsqaUBKTNV-1" vertex="1">
          <mxGeometry x="170" y="523" width="160" height="94" as="geometry">
            <mxRectangle x="230" y="140" width="160" height="26" as="alternateBounds" />
          </mxGeometry>
        </mxCell>
        <mxCell id="cKw881k5v9MW6BHNPAB5-31" value="path" style="text;align=left;verticalAlign=top;spacingLeft=4;spacingRight=4;overflow=hidden;rotatable=0;points=[[0,0.5],[1,0.5]];portConstraint=eastwest;rounded=1;" parent="cKw881k5v9MW6BHNPAB5-29" vertex="1">
          <mxGeometry y="26" width="160" height="26" as="geometry" />
        </mxCell>
        <mxCell id="cKw881k5v9MW6BHNPAB5-33" value="" style="line;html=1;strokeWidth=1;align=left;verticalAlign=middle;spacingTop=-1;spacingLeft=3;spacingRight=3;rotatable=0;labelPosition=right;points=[];portConstraint=eastwest;rounded=1;" parent="cKw881k5v9MW6BHNPAB5-29" vertex="1">
          <mxGeometry y="52" width="160" height="8" as="geometry" />
        </mxCell>
        <mxCell id="cKw881k5v9MW6BHNPAB5-34" value="ReadCode()" style="text;align=left;verticalAlign=top;spacingLeft=4;spacingRight=4;overflow=hidden;rotatable=0;points=[[0,0.5],[1,0.5]];portConstraint=eastwest;rounded=1;" parent="cKw881k5v9MW6BHNPAB5-29" vertex="1">
          <mxGeometry y="60" width="160" height="26" as="geometry" />
        </mxCell>
        <mxCell id="cKw881k5v9MW6BHNPAB5-39" value="Parser" style="swimlane;fontStyle=2;align=center;verticalAlign=top;childLayout=stackLayout;horizontal=1;startSize=26;horizontalStack=0;resizeParent=1;resizeLast=0;collapsible=1;marginBottom=0;rounded=1;shadow=0;strokeWidth=1;fillColor=#FFFF66;" parent="WIyWlLk6GJQsqaUBKTNV-1" vertex="1">
          <mxGeometry x="160" y="911" width="160" height="60" as="geometry">
            <mxRectangle x="230" y="140" width="160" height="26" as="alternateBounds" />
          </mxGeometry>
        </mxCell>
        <mxCell id="cKw881k5v9MW6BHNPAB5-41" value="" style="line;html=1;strokeWidth=1;align=left;verticalAlign=middle;spacingTop=-1;spacingLeft=3;spacingRight=3;rotatable=0;labelPosition=right;points=[];portConstraint=eastwest;rounded=1;" parent="cKw881k5v9MW6BHNPAB5-39" vertex="1">
          <mxGeometry y="26" width="160" height="8" as="geometry" />
        </mxCell>
        <mxCell id="cKw881k5v9MW6BHNPAB5-42" value="Parse()" style="text;align=left;verticalAlign=top;spacingLeft=4;spacingRight=4;overflow=hidden;rotatable=0;points=[[0,0.5],[1,0.5]];portConstraint=eastwest;rounded=1;" parent="cKw881k5v9MW6BHNPAB5-39" vertex="1">
          <mxGeometry y="34" width="160" height="26" as="geometry" />
        </mxCell>
        <mxCell id="cKw881k5v9MW6BHNPAB5-43" value="PyLocFile" style="swimlane;fontStyle=2;align=center;verticalAlign=top;childLayout=stackLayout;horizontal=1;startSize=26;horizontalStack=0;resizeParent=1;resizeLast=0;collapsible=1;marginBottom=0;rounded=1;shadow=0;strokeWidth=1;fillColor=#FFFF66;" parent="WIyWlLk6GJQsqaUBKTNV-1" vertex="1">
          <mxGeometry x="810" y="723" width="160" height="40" as="geometry">
            <mxRectangle x="230" y="140" width="160" height="26" as="alternateBounds" />
          </mxGeometry>
        </mxCell>
        <mxCell id="cKw881k5v9MW6BHNPAB5-45" value="" style="line;html=1;strokeWidth=1;align=left;verticalAlign=middle;spacingTop=-1;spacingLeft=3;spacingRight=3;rotatable=0;labelPosition=right;points=[];portConstraint=eastwest;rounded=1;" parent="cKw881k5v9MW6BHNPAB5-43" vertex="1">
          <mxGeometry y="26" width="160" height="8" as="geometry" />
        </mxCell>
        <mxCell id="TClMw2kC0mhd8q1SmInl-0" value="PyParser" style="swimlane;fontStyle=2;align=center;verticalAlign=top;childLayout=stackLayout;horizontal=1;startSize=26;horizontalStack=0;resizeParent=1;resizeLast=0;collapsible=1;marginBottom=0;rounded=1;shadow=0;strokeWidth=1;fillColor=#FFFF66;" parent="WIyWlLk6GJQsqaUBKTNV-1" vertex="1">
          <mxGeometry x="400" y="853" width="160" height="40" as="geometry">
            <mxRectangle x="230" y="140" width="160" height="26" as="alternateBounds" />
          </mxGeometry>
        </mxCell>
        <mxCell id="TClMw2kC0mhd8q1SmInl-1" value="" style="line;html=1;strokeWidth=1;align=left;verticalAlign=middle;spacingTop=-1;spacingLeft=3;spacingRight=3;rotatable=0;labelPosition=right;points=[];portConstraint=eastwest;rounded=1;" parent="TClMw2kC0mhd8q1SmInl-0" vertex="1">
          <mxGeometry y="26" width="160" height="8" as="geometry" />
        </mxCell>
        <mxCell id="TClMw2kC0mhd8q1SmInl-3" value="LocReader" style="swimlane;fontStyle=2;align=center;verticalAlign=top;childLayout=stackLayout;horizontal=1;startSize=26;horizontalStack=0;resizeParent=1;resizeLast=0;collapsible=1;marginBottom=0;rounded=1;shadow=0;strokeWidth=1;fillColor=#FFFF66;" parent="WIyWlLk6GJQsqaUBKTNV-1" vertex="1">
          <mxGeometry x="420" y="617" width="160" height="67" as="geometry">
            <mxRectangle x="230" y="140" width="160" height="26" as="alternateBounds" />
          </mxGeometry>
        </mxCell>
        <mxCell id="TClMw2kC0mhd8q1SmInl-5" value="" style="line;html=1;strokeWidth=1;align=left;verticalAlign=middle;spacingTop=-1;spacingLeft=3;spacingRight=3;rotatable=0;labelPosition=right;points=[];portConstraint=eastwest;rounded=1;" parent="TClMw2kC0mhd8q1SmInl-3" vertex="1">
          <mxGeometry y="26" width="160" height="8" as="geometry" />
        </mxCell>
        <mxCell id="TClMw2kC0mhd8q1SmInl-7" value="__ReadFrom()" style="text;align=left;verticalAlign=top;spacingLeft=4;spacingRight=4;overflow=hidden;rotatable=0;points=[[0,0.5],[1,0.5]];portConstraint=eastwest;rounded=1;" parent="TClMw2kC0mhd8q1SmInl-3" vertex="1">
          <mxGeometry y="34" width="160" height="26" as="geometry" />
        </mxCell>
        <mxCell id="TClMw2kC0mhd8q1SmInl-8" value="CppParser" style="swimlane;fontStyle=2;align=center;verticalAlign=top;childLayout=stackLayout;horizontal=1;startSize=26;horizontalStack=0;resizeParent=1;resizeLast=0;collapsible=1;marginBottom=0;rounded=1;shadow=0;strokeWidth=1;fillColor=#FFFF66;" parent="WIyWlLk6GJQsqaUBKTNV-1" vertex="1">
          <mxGeometry x="400" y="971" width="160" height="40" as="geometry">
            <mxRectangle x="230" y="140" width="160" height="26" as="alternateBounds" />
          </mxGeometry>
        </mxCell>
        <mxCell id="TClMw2kC0mhd8q1SmInl-9" value="" style="line;html=1;strokeWidth=1;align=left;verticalAlign=middle;spacingTop=-1;spacingLeft=3;spacingRight=3;rotatable=0;labelPosition=right;points=[];portConstraint=eastwest;rounded=1;" parent="TClMw2kC0mhd8q1SmInl-8" vertex="1">
          <mxGeometry y="26" width="160" height="8" as="geometry" />
        </mxCell>
        <mxCell id="TClMw2kC0mhd8q1SmInl-18" value="" style="edgeStyle=elbowEdgeStyle;elbow=horizontal;endArrow=block;html=1;entryX=1;entryY=0.25;entryDx=0;entryDy=0;exitX=0;exitY=0.25;exitDx=0;exitDy=0;fillColor=#6a00ff;strokeColor=#3700CC;endFill=0;strokeWidth=2;rounded=1;curved=1;" parent="WIyWlLk6GJQsqaUBKTNV-1" source="TClMw2kC0mhd8q1SmInl-3" target="cKw881k5v9MW6BHNPAB5-29" edge="1">
          <mxGeometry width="50" height="50" relative="1" as="geometry">
            <mxPoint x="620" y="600" as="sourcePoint" />
            <mxPoint x="390" y="540" as="targetPoint" />
            <Array as="points">
              <mxPoint x="380" y="593" />
              <mxPoint x="350" y="592" />
            </Array>
          </mxGeometry>
        </mxCell>
        <mxCell id="TClMw2kC0mhd8q1SmInl-19" value="" style="edgeStyle=elbowEdgeStyle;elbow=horizontal;endArrow=block;html=1;exitX=0;exitY=0.5;exitDx=0;exitDy=0;fillColor=#6a00ff;strokeColor=#3700CC;endFill=0;entryX=1;entryY=0.25;entryDx=0;entryDy=0;strokeWidth=2;rounded=1;curved=1;" parent="WIyWlLk6GJQsqaUBKTNV-1" source="TClMw2kC0mhd8q1SmInl-0" target="cKw881k5v9MW6BHNPAB5-39" edge="1">
          <mxGeometry width="50" height="50" relative="1" as="geometry">
            <mxPoint x="400" y="1010.25" as="sourcePoint" />
            <mxPoint x="320" y="933" as="targetPoint" />
            <Array as="points">
              <mxPoint x="360" y="969.5" />
              <mxPoint x="330" y="968.5" />
            </Array>
          </mxGeometry>
        </mxCell>
        <mxCell id="TClMw2kC0mhd8q1SmInl-20" value="" style="edgeStyle=elbowEdgeStyle;elbow=horizontal;endArrow=block;html=1;exitX=0;exitY=0.5;exitDx=0;exitDy=0;fillColor=#6a00ff;strokeColor=#3700CC;endFill=0;entryX=1;entryY=0.25;entryDx=0;entryDy=0;strokeWidth=2;rounded=1;curved=1;" parent="WIyWlLk6GJQsqaUBKTNV-1" source="TClMw2kC0mhd8q1SmInl-8" target="cKw881k5v9MW6BHNPAB5-39" edge="1">
          <mxGeometry width="50" height="50" relative="1" as="geometry">
            <mxPoint x="374" y="926" as="sourcePoint" />
            <mxPoint x="330" y="933" as="targetPoint" />
            <Array as="points">
              <mxPoint x="360" y="973" />
              <mxPoint x="320" y="891.5" />
            </Array>
          </mxGeometry>
        </mxCell>
        <mxCell id="TClMw2kC0mhd8q1SmInl-21" value="" style="edgeStyle=elbowEdgeStyle;elbow=horizontal;endArrow=block;html=1;entryX=1;entryY=0.25;entryDx=0;entryDy=0;exitX=0;exitY=0.25;exitDx=0;exitDy=0;fillColor=#6a00ff;strokeColor=#3700CC;endFill=0;strokeWidth=2;rounded=1;curved=1;" parent="WIyWlLk6GJQsqaUBKTNV-1" source="cKw881k5v9MW6BHNPAB5-43" target="TClMw2kC0mhd8q1SmInl-3" edge="1">
          <mxGeometry width="50" height="50" relative="1" as="geometry">
            <mxPoint x="430" y="643.75" as="sourcePoint" />
            <mxPoint x="340" y="556.5" as="targetPoint" />
            <Array as="points">
              <mxPoint x="630" y="653" />
              <mxPoint x="360" y="602" />
            </Array>
          </mxGeometry>
        </mxCell>
        <mxCell id="TClMw2kC0mhd8q1SmInl-22" value="" style="edgeStyle=elbowEdgeStyle;elbow=horizontal;endArrow=block;html=1;entryX=1;entryY=0.5;entryDx=0;entryDy=0;fillColor=#6a00ff;strokeColor=#3700CC;endFill=0;exitX=0;exitY=0.5;exitDx=0;exitDy=0;strokeWidth=2;rounded=1;curved=1;" parent="WIyWlLk6GJQsqaUBKTNV-1" source="cKw881k5v9MW6BHNPAB5-43" target="TClMw2kC0mhd8q1SmInl-0" edge="1">
          <mxGeometry width="50" height="50" relative="1" as="geometry">
            <mxPoint x="740" y="813" as="sourcePoint" />
            <mxPoint x="590" y="883" as="targetPoint" />
            <Array as="points">
              <mxPoint x="680" y="851" />
              <mxPoint x="370" y="851.25" />
            </Array>
          </mxGeometry>
        </mxCell>
        <mxCell id="TClMw2kC0mhd8q1SmInl-23" value="" style="edgeStyle=elbowEdgeStyle;elbow=horizontal;endArrow=block;html=1;exitX=0.5;exitY=0;exitDx=0;exitDy=0;fillColor=#6a00ff;strokeColor=#3700CC;endFill=0;entryX=0.5;entryY=1;entryDx=0;entryDy=0;strokeWidth=2;rounded=1;curved=1;" parent="WIyWlLk6GJQsqaUBKTNV-1" source="cKw881k5v9MW6BHNPAB5-43" target="cKw881k5v9MW6BHNPAB5-16" edge="1">
          <mxGeometry width="50" height="50" relative="1" as="geometry">
            <mxPoint x="920" y="739" as="sourcePoint" />
            <mxPoint x="830" y="573" as="targetPoint" />
            <Array as="points">
              <mxPoint x="820" y="663" />
              <mxPoint x="830" y="573" />
              <mxPoint x="530" y="558" />
            </Array>
          </mxGeometry>
        </mxCell>
        <mxCell id="TClMw2kC0mhd8q1SmInl-24" value="" style="edgeStyle=elbowEdgeStyle;elbow=horizontal;endArrow=classic;html=1;exitX=0.5;exitY=0;exitDx=0;exitDy=0;fillColor=#6a00ff;strokeColor=#3700CC;strokeWidth=2;rounded=1;curved=1;" parent="WIyWlLk6GJQsqaUBKTNV-1" source="NwMVmhF7Geu6R6AWHGBS-0" target="cKw881k5v9MW6BHNPAB5-25" edge="1">
          <mxGeometry width="50" height="50" relative="1" as="geometry">
            <mxPoint x="1230" y="523" as="sourcePoint" />
            <mxPoint x="1000" y="463" as="targetPoint" />
            <Array as="points">
              <mxPoint x="1230" y="474" />
              <mxPoint x="960" y="515" />
            </Array>
          </mxGeometry>
        </mxCell>
        <mxCell id="TClMw2kC0mhd8q1SmInl-25" value="" style="edgeStyle=elbowEdgeStyle;elbow=horizontal;endArrow=classic;html=1;exitX=0.5;exitY=0;exitDx=0;exitDy=0;fillColor=#6a00ff;strokeColor=#3700CC;strokeWidth=2;rounded=1;curved=1;" parent="WIyWlLk6GJQsqaUBKTNV-1" source="cKw881k5v9MW6BHNPAB5-16" edge="1">
          <mxGeometry width="50" height="50" relative="1" as="geometry">
            <mxPoint x="970" y="354" as="sourcePoint" />
            <mxPoint x="490" y="220" as="targetPoint" />
            <Array as="points">
              <mxPoint x="820" y="280" />
              <mxPoint x="830" y="303" />
              <mxPoint x="553" y="305" />
            </Array>
          </mxGeometry>
        </mxCell>
        <mxCell id="TClMw2kC0mhd8q1SmInl-28" value="" style="endArrow=open;dashed=1;html=1;rounded=1;strokeWidth=2;curved=1;entryX=0;entryY=0.75;entryDx=0;entryDy=0;exitX=1;exitY=0.75;exitDx=0;exitDy=0;strokeColor=#3700CC;endFill=0;" parent="WIyWlLk6GJQsqaUBKTNV-1" source="TClMw2kC0mhd8q1SmInl-26" target="NwMVmhF7Geu6R6AWHGBS-0" edge="1">
          <mxGeometry width="50" height="50" relative="1" as="geometry">
            <mxPoint x="700" y="793" as="sourcePoint" />
            <mxPoint x="750" y="743" as="targetPoint" />
            <Array as="points">
              <mxPoint x="940" y="1003" />
            </Array>
          </mxGeometry>
        </mxCell>
        <mxCell id="TClMw2kC0mhd8q1SmInl-55" value="Взаимодействие" style="shape=table;startSize=30;container=1;collapsible=0;childLayout=tableLayout;fontStyle=1;align=center;rounded=1;fillColor=#FDFDC9;" parent="WIyWlLk6GJQsqaUBKTNV-1" vertex="1">
          <mxGeometry x="10" y="12" width="210" height="150" as="geometry" />
        </mxCell>
        <mxCell id="TClMw2kC0mhd8q1SmInl-56" value="" style="shape=tableRow;horizontal=0;startSize=0;swimlaneHead=0;swimlaneBody=0;top=0;left=0;bottom=0;right=0;collapsible=0;dropTarget=0;fillColor=none;points=[[0,0.5],[1,0.5]];portConstraint=eastwest;rounded=1;" parent="TClMw2kC0mhd8q1SmInl-55" vertex="1">
          <mxGeometry y="30" width="210" height="40" as="geometry" />
        </mxCell>
        <mxCell id="TClMw2kC0mhd8q1SmInl-57" value="Наследование" style="shape=partialRectangle;html=1;whiteSpace=wrap;connectable=0;fillColor=none;top=0;left=0;bottom=0;right=0;overflow=hidden;rounded=1;" parent="TClMw2kC0mhd8q1SmInl-56" vertex="1">
          <mxGeometry width="105" height="40" as="geometry">
            <mxRectangle width="105" height="40" as="alternateBounds" />
          </mxGeometry>
        </mxCell>
        <mxCell id="TClMw2kC0mhd8q1SmInl-58" value="" style="shape=partialRectangle;html=1;whiteSpace=wrap;connectable=0;fillColor=none;top=0;left=0;bottom=0;right=0;overflow=hidden;rounded=1;" parent="TClMw2kC0mhd8q1SmInl-56" vertex="1">
          <mxGeometry x="105" width="105" height="40" as="geometry">
            <mxRectangle width="105" height="40" as="alternateBounds" />
          </mxGeometry>
        </mxCell>
        <mxCell id="TClMw2kC0mhd8q1SmInl-60" value="" style="shape=tableRow;horizontal=0;startSize=0;swimlaneHead=0;swimlaneBody=0;top=0;left=0;bottom=0;right=0;collapsible=0;dropTarget=0;fillColor=none;points=[[0,0.5],[1,0.5]];portConstraint=eastwest;rounded=1;" parent="TClMw2kC0mhd8q1SmInl-55" vertex="1">
          <mxGeometry y="70" width="210" height="40" as="geometry" />
        </mxCell>
        <mxCell id="TClMw2kC0mhd8q1SmInl-61" value="Композиция" style="shape=partialRectangle;html=1;whiteSpace=wrap;connectable=0;fillColor=none;top=0;left=0;bottom=0;right=0;overflow=hidden;rounded=1;" parent="TClMw2kC0mhd8q1SmInl-60" vertex="1">
          <mxGeometry width="105" height="40" as="geometry">
            <mxRectangle width="105" height="40" as="alternateBounds" />
          </mxGeometry>
        </mxCell>
        <mxCell id="TClMw2kC0mhd8q1SmInl-62" value="" style="shape=partialRectangle;html=1;whiteSpace=wrap;connectable=0;fillColor=none;top=0;left=0;bottom=0;right=0;overflow=hidden;rounded=1;" parent="TClMw2kC0mhd8q1SmInl-60" vertex="1">
          <mxGeometry x="105" width="105" height="40" as="geometry">
            <mxRectangle width="105" height="40" as="alternateBounds" />
          </mxGeometry>
        </mxCell>
        <mxCell id="TClMw2kC0mhd8q1SmInl-64" value="" style="shape=tableRow;horizontal=0;startSize=0;swimlaneHead=0;swimlaneBody=0;top=0;left=0;bottom=0;right=0;collapsible=0;dropTarget=0;fillColor=none;points=[[0,0.5],[1,0.5]];portConstraint=eastwest;rounded=1;" parent="TClMw2kC0mhd8q1SmInl-55" vertex="1">
          <mxGeometry y="110" width="210" height="40" as="geometry" />
        </mxCell>
        <mxCell id="TClMw2kC0mhd8q1SmInl-65" value="Взаимодействие" style="shape=partialRectangle;html=1;whiteSpace=wrap;connectable=0;fillColor=none;top=0;left=0;bottom=0;right=0;overflow=hidden;rounded=1;" parent="TClMw2kC0mhd8q1SmInl-64" vertex="1">
          <mxGeometry width="105" height="40" as="geometry">
            <mxRectangle width="105" height="40" as="alternateBounds" />
          </mxGeometry>
        </mxCell>
        <mxCell id="TClMw2kC0mhd8q1SmInl-66" value="" style="shape=partialRectangle;html=1;whiteSpace=wrap;connectable=0;fillColor=none;top=0;left=0;bottom=0;right=0;overflow=hidden;rounded=1;" parent="TClMw2kC0mhd8q1SmInl-64" vertex="1">
          <mxGeometry x="105" width="105" height="40" as="geometry">
            <mxRectangle width="105" height="40" as="alternateBounds" />
          </mxGeometry>
        </mxCell>
        <mxCell id="TClMw2kC0mhd8q1SmInl-72" value="" style="edgeStyle=elbowEdgeStyle;elbow=horizontal;endArrow=block;html=1;fillColor=#6a00ff;strokeColor=#3700CC;endFill=0;strokeWidth=2;rounded=1;curved=1;" parent="WIyWlLk6GJQsqaUBKTNV-1" edge="1">
          <mxGeometry width="50" height="50" relative="1" as="geometry">
            <mxPoint x="130" y="62" as="sourcePoint" />
            <mxPoint x="200" y="62" as="targetPoint" />
            <Array as="points">
              <mxPoint x="160" y="62" />
              <mxPoint x="110" y="100.5" />
            </Array>
          </mxGeometry>
        </mxCell>
        <mxCell id="TClMw2kC0mhd8q1SmInl-74" value="" style="edgeStyle=elbowEdgeStyle;elbow=horizontal;endArrow=classic;html=1;fillColor=#6a00ff;strokeColor=#3700CC;endFill=1;strokeWidth=2;rounded=1;curved=1;" parent="WIyWlLk6GJQsqaUBKTNV-1" edge="1">
          <mxGeometry width="50" height="50" relative="1" as="geometry">
            <mxPoint x="130" y="102" as="sourcePoint" />
            <mxPoint x="200" y="102" as="targetPoint" />
            <Array as="points">
              <mxPoint x="160" y="102" />
              <mxPoint x="110" y="140.5" />
            </Array>
          </mxGeometry>
        </mxCell>
        <mxCell id="TClMw2kC0mhd8q1SmInl-76" value="" style="edgeStyle=elbowEdgeStyle;elbow=horizontal;endArrow=open;html=1;fillColor=#6a00ff;strokeColor=#3700CC;endFill=0;strokeWidth=2;rounded=1;curved=1;dashed=1;" parent="WIyWlLk6GJQsqaUBKTNV-1" edge="1">
          <mxGeometry width="50" height="50" relative="1" as="geometry">
            <mxPoint x="130" y="143" as="sourcePoint" />
            <mxPoint x="200" y="143" as="targetPoint" />
            <Array as="points">
              <mxPoint x="160" y="143" />
              <mxPoint x="110" y="181.5" />
            </Array>
          </mxGeometry>
        </mxCell>
        <mxCell id="7bwkgDNy9H3JULc0SBVc-0" value="Drawer" style="swimlane;fontStyle=2;align=center;verticalAlign=top;childLayout=stackLayout;horizontal=1;startSize=26;horizontalStack=0;resizeParent=1;resizeLast=0;collapsible=1;marginBottom=0;rounded=1;shadow=0;strokeWidth=1;fillColor=#FFFF66;" vertex="1" parent="WIyWlLk6GJQsqaUBKTNV-1">
          <mxGeometry x="1370" y="319" width="160" height="64" as="geometry">
            <mxRectangle x="230" y="140" width="160" height="26" as="alternateBounds" />
          </mxGeometry>
        </mxCell>
        <mxCell id="7bwkgDNy9H3JULc0SBVc-2" value="" style="line;html=1;strokeWidth=1;align=left;verticalAlign=middle;spacingTop=-1;spacingLeft=3;spacingRight=3;rotatable=0;labelPosition=right;points=[];portConstraint=eastwest;rounded=1;" vertex="1" parent="7bwkgDNy9H3JULc0SBVc-0">
          <mxGeometry y="26" width="160" height="8" as="geometry" />
        </mxCell>
        <mxCell id="7bwkgDNy9H3JULc0SBVc-3" value="Draw()" style="text;align=left;verticalAlign=top;spacingLeft=4;spacingRight=4;overflow=hidden;rotatable=0;points=[[0,0.5],[1,0.5]];portConstraint=eastwest;rounded=1;" vertex="1" parent="7bwkgDNy9H3JULc0SBVc-0">
          <mxGeometry y="34" width="160" height="26" as="geometry" />
        </mxCell>
        <mxCell id="7bwkgDNy9H3JULc0SBVc-5" value="HTMLDrawer" style="swimlane;fontStyle=2;align=center;verticalAlign=top;childLayout=stackLayout;horizontal=1;startSize=26;horizontalStack=0;resizeParent=1;resizeLast=0;collapsible=1;marginBottom=0;rounded=1;shadow=0;strokeWidth=1;fillColor=#FFFF66;" vertex="1" parent="WIyWlLk6GJQsqaUBKTNV-1">
          <mxGeometry x="1410" y="54.5" width="160" height="65" as="geometry">
            <mxRectangle x="230" y="140" width="160" height="26" as="alternateBounds" />
          </mxGeometry>
        </mxCell>
        <mxCell id="7bwkgDNy9H3JULc0SBVc-6" value="" style="line;html=1;strokeWidth=1;align=left;verticalAlign=middle;spacingTop=-1;spacingLeft=3;spacingRight=3;rotatable=0;labelPosition=right;points=[];portConstraint=eastwest;rounded=1;" vertex="1" parent="7bwkgDNy9H3JULc0SBVc-5">
          <mxGeometry y="26" width="160" height="8" as="geometry" />
        </mxCell>
        <mxCell id="7bwkgDNy9H3JULc0SBVc-8" value="" style="edgeStyle=elbowEdgeStyle;elbow=horizontal;endArrow=classic;html=1;entryX=1;entryY=0.5;entryDx=0;entryDy=0;exitX=0.5;exitY=0;exitDx=0;exitDy=0;fillColor=#6a00ff;strokeColor=#3700CC;strokeWidth=2;rounded=1;curved=1;" edge="1" parent="WIyWlLk6GJQsqaUBKTNV-1" source="NwMVmhF7Geu6R6AWHGBS-14" target="_q6mb241feD118rv6-at-0">
          <mxGeometry width="50" height="50" relative="1" as="geometry">
            <mxPoint x="1030" y="248.4999999999999" as="sourcePoint" />
            <mxPoint x="1330" y="119.5" as="targetPoint" />
            <Array as="points">
              <mxPoint x="1161" y="130" />
              <mxPoint x="1240" y="222.5" />
            </Array>
          </mxGeometry>
        </mxCell>
        <mxCell id="7bwkgDNy9H3JULc0SBVc-10" value="" style="edgeStyle=elbowEdgeStyle;elbow=horizontal;endArrow=classic;html=1;entryX=1;entryY=0.5;entryDx=0;entryDy=0;fillColor=#6a00ff;strokeColor=#3700CC;strokeWidth=2;rounded=1;curved=1;exitX=0;exitY=0.25;exitDx=0;exitDy=0;" edge="1" parent="WIyWlLk6GJQsqaUBKTNV-1" source="7bwkgDNy9H3JULc0SBVc-0" target="7bwkgDNy9H3JULc0SBVc-9">
          <mxGeometry width="50" height="50" relative="1" as="geometry">
            <mxPoint x="1390" y="260" as="sourcePoint" />
            <mxPoint x="1220" y="140" as="targetPoint" />
            <Array as="points">
              <mxPoint x="1330" y="270" />
              <mxPoint x="1511" y="193" />
              <mxPoint x="1590" y="285.5" />
            </Array>
          </mxGeometry>
        </mxCell>
        <mxCell id="7bwkgDNy9H3JULc0SBVc-11" value="" style="edgeStyle=elbowEdgeStyle;elbow=horizontal;endArrow=block;html=1;exitX=0.5;exitY=1;exitDx=0;exitDy=0;fillColor=#6a00ff;strokeColor=#3700CC;endFill=0;strokeWidth=2;rounded=1;curved=1;" edge="1" parent="WIyWlLk6GJQsqaUBKTNV-1" source="7bwkgDNy9H3JULc0SBVc-5">
          <mxGeometry width="50" height="50" relative="1" as="geometry">
            <mxPoint x="1510" y="295.5" as="sourcePoint" />
            <mxPoint x="1450" y="320" as="targetPoint" />
            <Array as="points">
              <mxPoint x="1450" y="200" />
              <mxPoint x="1450" y="145.5" />
              <mxPoint x="1150" y="130.5" />
            </Array>
          </mxGeometry>
        </mxCell>
        <mxCell id="7bwkgDNy9H3JULc0SBVc-14" value="" style="endArrow=open;dashed=1;html=1;rounded=1;strokeWidth=2;curved=1;exitX=1;exitY=0.5;exitDx=0;exitDy=0;strokeColor=#3700CC;endFill=0;entryX=0.5;entryY=1;entryDx=0;entryDy=0;" edge="1" parent="WIyWlLk6GJQsqaUBKTNV-1" source="Z01SoYrw3imbdWKildIG-0" target="7bwkgDNy9H3JULc0SBVc-0">
          <mxGeometry width="50" height="50" relative="1" as="geometry">
            <mxPoint x="1150" y="716.88" as="sourcePoint" />
            <mxPoint x="1470" y="500" as="targetPoint" />
            <Array as="points">
              <mxPoint x="1430" y="770" />
            </Array>
          </mxGeometry>
        </mxCell>
      </root>
    </mxGraphModel>
  </diagram>
</mxfile>
